<svg width="62" height="28" viewBox="0 0 62 28" fill="none" xmlns="http://www.w3.org/2000/svg">
<rect x="2" y="2" width="58" height="24.0415" fill="#EC111A"/>
<path d="M3.95337 4.40417V23.6373H7.40933L7.55959 15.0726L9.06218 23.6373H11.0155L12.5181 15.0726V23.6373H19.1295L19.5803 20.7824H22.285L22.7358 23.6373H29.4974V17.4767H30.2487L31.7513 23.6373H35.2073L33.1036 16.4249C34.2879 15.2354 34.8473 14.4377 35.2073 12.2176L37.1606 23.6373H41.3679L44.0725 6.65806V23.6373H50.6839V20.1814H47.5285V15.8239H50.6839V12.2176H47.5285V8.01039H50.6839V4.40417H40.9171L39.2643 16.7254L37.9119 4.40417H34.0052L34.3057 7.2591C33.7047 5.75651 31.7513 4.40417 30.5492 4.40417H25.8912V21.2332L23.487 4.40417H18.6788L16.1244 21.8342V4.40417H11.6166L9.96373 13.8705L8.31088 4.40417H3.95337Z" fill="white"/>
<path d="M51.285 23.6373V4.40417H54.7409V20.3316H57.7461V23.6373H51.285Z" fill="white"/>
<path d="M21.0831 9.66315L20.0312 17.3264H22.1349L21.0831 9.66315Z" fill="#EC111A"/>
<path d="M29.4976 13.7201V7.70978C30.8815 8.14672 31.7515 8.91185 31.7515 10.8652C31.7515 12.2175 30.9046 13.5298 29.4976 13.7201Z" fill="#EC111A"/>
</svg>
